<svg width="41" height="41" viewBox="0 0 41 41" fill="none" xmlns="http://www.w3.org/2000/svg">
    <g opacity="0.4">
        <path fill-rule="evenodd" clip-rule="evenodd" d="M6.46125 3.53671C8.63943 2.78273 11.5405 2.34668 14.6667 2.34668C17.7929 2.34668 20.6941 2.78273 22.8722 3.53671C23.9534 3.91096 24.9476 4.39453 25.7042 5.01388C26.4487 5.62318 27.1667 6.54295 27.1667 7.76335V10.6896C27.1667 10.9894 27.1667 11.1393 27.1071 11.2502C27.0599 11.3378 26.9912 11.4065 26.9036 11.4537C26.7927 11.5133 26.6396 11.5133 26.3334 11.5133C23.0052 11.5133 19.8149 11.9739 17.3101 12.8409C16.0773 13.2677 14.782 13.8706 13.7125 14.7459C13.0655 15.2754 12.2938 16.0864 11.8086 17.1808C11.7017 17.4218 11.6483 17.5425 11.5565 17.5967C11.4648 17.651 11.3458 17.641 11.1077 17.6208C8.18058 17.3728 5.71111 16.8017 3.85485 15.9079C3.48488 15.7298 3.14198 15.5407 2.82623 15.3403C2.52401 15.1485 2.37291 15.0527 2.26983 14.8652C2.16675 14.6776 2.16675 14.4739 2.16675 14.0665V7.76341C2.16675 6.54303 2.8847 5.62318 3.62918 5.01388C4.38596 4.39453 5.38008 3.91096 6.46125 3.53671ZM5.74031 7.59346C6.07993 7.31553 6.67231 6.99105 7.55161 6.68668C9.29431 6.08343 11.8099 5.68001 14.6667 5.68001C17.5236 5.68001 20.0392 6.08343 21.7819 6.68668C22.6612 6.99105 23.2536 7.31553 23.5932 7.59346C23.7029 7.68326 23.7029 7.84343 23.5932 7.93323C23.2536 8.21116 22.6612 8.53565 21.7819 8.84001C20.0392 9.44326 17.5236 9.84668 14.6667 9.84668C11.8099 9.84668 9.29431 9.44326 7.55161 8.84001C6.67231 8.53565 6.07993 8.21116 5.74031 7.93323C5.6306 7.84343 5.6306 7.68326 5.74031 7.59346Z" fill="#61F0FE"/>
        <path d="M11.3334 20.7658C11.3334 20.4729 11.3334 20.3266 11.2461 20.2311C11.1587 20.1356 11.0111 20.1224 10.7159 20.0959C7.65631 19.8221 4.93341 19.2016 2.77031 18.1603C2.6656 18.1098 2.61325 18.0846 2.57935 18.0763C2.39128 18.0303 2.21408 18.1416 2.17398 18.3309C2.16675 18.3651 2.16675 18.4198 2.16675 18.5289V23.7304C2.16675 24.1721 2.16675 24.3928 2.2868 24.5914C2.40683 24.7903 2.57771 24.8801 2.91948 25.0598C3.18698 25.2003 3.47503 25.3338 3.7842 25.4596C5.55291 26.1803 7.87588 26.6041 10.6297 26.7993C10.9574 26.8224 11.1212 26.8339 11.2273 26.7351C11.3334 26.6363 11.3334 26.4704 11.3334 26.1388V20.7658Z" fill="#61F0FE"/>
        <path d="M11.3334 29.9802C11.3334 29.6817 11.3334 29.5323 11.2434 29.4362C11.1533 29.34 11.0029 29.3302 10.7021 29.3105C7.68293 29.1125 4.98588 28.649 2.84096 27.7752C2.65716 27.7002 2.56526 27.6628 2.49985 27.6628C2.36026 27.663 2.24423 27.741 2.19146 27.8702C2.16675 27.9308 2.16675 28.0255 2.16675 28.215V32.3467C2.16675 33.5957 2.98483 34.4687 3.7043 34.992C4.46025 35.542 5.44696 35.9677 6.51628 36.2967C7.83215 36.7017 9.41628 37.003 11.157 37.1767C11.7651 37.2373 12.0691 37.2677 12.1812 37.109C12.2932 36.9505 12.1473 36.6403 11.8555 36.02C11.5414 35.3523 11.3334 34.5728 11.3334 33.6803V29.9802Z" fill="#61F0FE"/>
    </g>
    <path fill-rule="evenodd" clip-rule="evenodd" d="M26.3335 14.0132C23.2073 14.0132 20.3062 14.4492 18.128 15.2032C17.0468 15.5775 16.0527 16.061 15.2959 16.6804C14.5514 17.2897 13.8335 18.2095 13.8335 19.4299V23.8145C13.8335 24.569 13.8335 24.9463 14.0411 25.3223C14.2487 25.6983 14.5059 25.8604 15.0204 26.1844C17.542 27.7718 21.4307 28.5962 26.3337 28.5962C31.2367 28.5962 35.1253 27.7718 37.6468 26.1844C38.1612 25.8605 38.4183 25.6985 38.6258 25.3225C38.8335 24.9465 38.8335 24.5692 38.8335 23.8145V19.4302C38.8335 18.2099 38.1155 17.2897 37.371 16.6804C36.6143 16.061 35.6202 15.5775 34.539 15.2032C32.3608 14.4492 29.4597 14.0132 26.3335 14.0132ZM19.2183 18.3532C18.339 18.6575 17.7467 18.982 17.407 19.26C17.2973 19.3498 17.2973 19.5099 17.407 19.5997C17.7467 19.8777 18.339 20.2022 19.2183 20.5065C20.961 21.1098 23.4767 21.5132 26.3335 21.5132C29.1903 21.5132 31.706 21.1098 33.4487 20.5065C34.328 20.2022 34.9203 19.8777 35.26 19.5997C35.3697 19.5099 35.3697 19.3498 35.26 19.26C34.9203 18.982 34.328 18.6575 33.4487 18.3532C31.706 17.7499 29.1903 17.3465 26.3335 17.3465C23.4767 17.3465 20.961 17.7499 19.2183 18.3532Z" fill="#61F0FE"/>
    <path d="M26.3337 31.0963C31.0802 31.0963 35.261 30.366 38.3197 28.6875C38.5532 28.5593 38.67 28.4953 38.7517 28.5436C38.8335 28.5921 38.8335 28.7228 38.8335 28.9841V33.6803C38.8335 34.9051 38.0977 35.816 37.3568 36.409C36.5998 37.0146 35.607 37.4866 34.5282 37.8518C32.3537 38.5878 29.4565 39.0136 26.3335 39.0136C23.2105 39.0136 20.3133 38.5878 18.1388 37.8518C17.06 37.4866 16.0671 37.0146 15.3102 36.409C14.5693 35.816 13.8335 34.9051 13.8335 33.6803V28.984C13.8335 28.7226 13.8335 28.592 13.9153 28.5435C13.997 28.4951 14.1138 28.5591 14.3473 28.6873C17.4062 30.3658 21.587 31.0963 26.3337 31.0963Z" fill="#61F0FE"/>
</svg>