<svg width="87" height="26" viewBox="0 0 87 26" fill="none" xmlns="http://www.w3.org/2000/svg">
<path d="M5.25 1H0.75C0.335786 1 0 1.33579 0 1.75V18.25C0 18.6642 0.335786 19 0.75 19H5.25C5.66421 19 6 18.6642 6 18.25V1.75C6 1.33579 5.66421 1 5.25 1Z" fill="white"/>
<path d="M13.25 1H8.75C8.33579 1 8 1.33579 8 1.75V24.25C8 24.6642 8.33579 25 8.75 25H13.25C13.6642 25 14 24.6642 14 24.25V1.75C14 1.33579 13.6642 1 13.25 1Z" fill="white"/>
<path d="M34.012 25.2V18.258H33.596C33.4053 18.6047 33.128 18.9427 32.764 19.272C32.4 19.584 31.932 19.844 31.36 20.052C30.8053 20.26 30.112 20.364 29.28 20.364C28.2053 20.364 27.2173 20.104 26.316 19.584C25.4147 19.064 24.6953 18.3187 24.158 17.348C23.6207 16.36 23.352 15.1727 23.352 13.786V13.396C23.352 12.0093 23.6207 10.8307 24.158 9.86C24.7127 8.872 25.4407 8.118 26.342 7.598C27.2433 7.078 28.2227 6.818 29.28 6.818C30.528 6.818 31.4813 7.04333 32.14 7.494C32.816 7.94467 33.3187 8.456 33.648 9.028H34.064V7.182H36.69V25.2H34.012ZM30.034 18.024C31.2127 18.024 32.1747 17.6513 32.92 16.906C33.6653 16.1607 34.038 15.0947 34.038 13.708V13.474C34.038 12.1047 33.6567 11.0473 32.894 10.302C32.1487 9.55667 31.1953 9.184 30.034 9.184C28.89 9.184 27.9367 9.55667 27.174 10.302C26.4287 11.0473 26.056 12.1047 26.056 13.474V13.708C26.056 15.0947 26.4287 16.1607 27.174 16.906C27.9367 17.6513 28.89 18.024 30.034 18.024ZM43.7263 20.234C42.7556 20.234 41.8889 20.0173 41.1263 19.584C40.3636 19.1507 39.7656 18.5353 39.3323 17.738C38.8989 16.9407 38.6823 15.9873 38.6823 14.878V7.182H41.3603V14.696C41.3603 15.8053 41.6376 16.6287 42.1923 17.166C42.7469 17.686 43.5183 17.946 44.5063 17.946C45.5983 17.946 46.4736 17.582 47.1323 16.854C47.8083 16.1087 48.1463 15.0427 48.1463 13.656V7.182H50.8243V20H48.1983V18.076H47.7823C47.5396 18.596 47.1063 19.09 46.4823 19.558C45.8583 20.0087 44.9396 20.234 43.7263 20.234ZM60.373 20.364C59.125 20.364 58.163 20.1387 57.487 19.688C56.8283 19.2373 56.3343 18.7347 56.005 18.18H55.589V20H52.963V1.8H55.641V8.924H56.057C56.265 8.57733 56.5423 8.248 56.889 7.936C57.2356 7.60667 57.695 7.338 58.267 7.13C58.839 6.922 59.541 6.818 60.373 6.818C61.4476 6.818 62.4356 7.078 63.337 7.598C64.2383 8.118 64.9576 8.872 65.495 9.86C66.0323 10.848 66.301 12.0267 66.301 13.396V13.786C66.301 15.1727 66.0236 16.36 65.469 17.348C64.9316 18.3187 64.2123 19.064 63.311 19.584C62.427 20.104 61.4476 20.364 60.373 20.364ZM59.593 18.024C60.7543 18.024 61.7076 17.6513 62.453 16.906C63.2156 16.1607 63.597 15.0947 63.597 13.708V13.474C63.597 12.1047 63.2243 11.0473 62.479 10.302C61.7336 9.55667 60.7716 9.184 59.593 9.184C58.449 9.184 57.4956 9.55667 56.733 10.302C55.9876 11.0473 55.615 12.1047 55.615 13.474V13.708C55.615 15.0947 55.9876 16.1607 56.733 16.906C57.4956 17.6513 58.449 18.024 59.593 18.024ZM67.7992 20V7.182H70.4772V20H67.7992ZM69.1512 5.44C68.6312 5.44 68.1892 5.27533 67.8252 4.946C67.4785 4.59933 67.3052 4.15733 67.3052 3.62C67.3052 3.08267 67.4785 2.64933 67.8252 2.32C68.1892 1.97333 68.6312 1.8 69.1512 1.8C69.6885 1.8 70.1305 1.97333 70.4772 2.32C70.8239 2.64933 70.9972 3.08267 70.9972 3.62C70.9972 4.15733 70.8239 4.59933 70.4772 4.946C70.1305 5.27533 69.6885 5.44 69.1512 5.44ZM78.5855 20.364C77.3549 20.364 76.2369 20.104 75.2315 19.584C74.2435 19.064 73.4549 18.31 72.8655 17.322C72.2935 16.334 72.0075 15.1467 72.0075 13.76V13.422C72.0075 12.0353 72.2935 10.8567 72.8655 9.886C73.4549 8.898 74.2435 8.144 75.2315 7.624C76.2369 7.08667 77.3549 6.818 78.5855 6.818C79.8162 6.818 80.8649 7.04333 81.7315 7.494C82.5982 7.94467 83.2915 8.54267 83.8115 9.288C84.3489 10.0333 84.6955 10.8567 84.8515 11.758L82.2515 12.304C82.1649 11.732 81.9829 11.212 81.7055 10.744C81.4282 10.276 81.0382 9.90333 80.5355 9.626C80.0329 9.34867 79.4002 9.21 78.6375 9.21C77.8922 9.21 77.2162 9.38333 76.6095 9.73C76.0202 10.0593 75.5522 10.5447 75.2055 11.186C74.8589 11.81 74.6855 12.5727 74.6855 13.474V13.708C74.6855 14.6093 74.8589 15.3807 75.2055 16.022C75.5522 16.6633 76.0202 17.1487 76.6095 17.478C77.2162 17.8073 77.8922 17.972 78.6375 17.972C79.7642 17.972 80.6222 17.686 81.2115 17.114C81.8009 16.5247 82.1735 15.7793 82.3295 14.878L84.9295 15.476C84.7215 16.36 84.3489 17.1747 83.8115 17.92C83.2915 18.6653 82.5982 19.2633 81.7315 19.714C80.8649 20.1473 79.8162 20.364 78.5855 20.364Z" fill="white"/>
</svg>
