<svg width="41" height="41" viewBox="0 0 41 41" fill="none" xmlns="http://www.w3.org/2000/svg">
    <path opacity="0.4" d="M2.58325 27.3467C2.58325 21.1335 7.62005 16.0967 13.8333 16.0967C20.0464 16.0967 25.0833 21.1335 25.0833 27.3467C25.0833 33.5598 20.0464 38.5967 13.8333 38.5967C7.62005 38.5967 2.58325 33.5598 2.58325 27.3467Z" fill="#61F0FE"/>
    <path opacity="0.4" d="M27.1664 2.76318C33.3795 2.76318 38.4164 7.79998 38.4164 14.0132C38.4164 19.8425 33.9829 24.6362 28.3039 25.2064C27.9114 25.2459 27.7152 25.2655 27.561 25.1537C27.407 25.0419 27.3599 24.8263 27.2657 24.3955C26.123 19.1703 22.0092 15.0566 16.7841 13.914C16.3532 13.8197 16.1378 13.7726 16.0259 13.6185C15.9141 13.4643 15.9338 13.2682 15.9732 12.8757C16.5434 7.19672 21.3372 2.76318 27.1664 2.76318Z" fill="#61F0FE"/>
    <path fill-rule="evenodd" clip-rule="evenodd" d="M10.1241 7.75025L11.4438 9.33652C11.7137 9.66095 12.1291 9.82728 12.5483 9.7788C12.9675 9.73031 13.334 9.47356 13.5227 9.0961L14.9513 6.23895C15.145 5.85147 15.1243 5.39128 14.8966 5.02276C14.6688 4.65425 14.2665 4.42993 13.8333 4.42993C12.5207 4.42993 11.2583 4.65457 10.0841 5.06873C5.71264 6.61065 2.58325 10.7749 2.58325 15.6799C2.58325 16.3703 3.1429 16.9299 3.83325 16.9299C4.5236 16.9299 5.08325 16.3703 5.08325 15.6799C5.08325 12.1692 7.14332 9.14461 10.1241 7.75025Z" fill="#61F0FE"/>
    <path fill-rule="evenodd" clip-rule="evenodd" d="M30.8757 33.6096L29.556 32.0233C29.2862 31.6989 28.8707 31.5326 28.4515 31.5811C28.0322 31.6296 27.6658 31.8863 27.477 32.2638L26.0485 35.1209C25.8547 35.5084 25.8755 35.9686 26.1032 36.3371C26.331 36.7056 26.7333 36.9299 27.1665 36.9299C28.479 36.9299 29.7415 36.7053 30.9157 36.2911C35.2872 34.7493 38.4165 30.5849 38.4165 25.6799C38.4165 24.9896 37.8568 24.4299 37.1665 24.4299C36.4762 24.4299 35.9165 24.9896 35.9165 25.6799C35.9165 29.1906 33.8565 32.2153 30.8757 33.6096Z" fill="#61F0FE"/>
</svg>