<svg width="41" height="40" viewBox="0 0 41 40" fill="none" xmlns="http://www.w3.org/2000/svg">
    <path opacity="0.4" fill-rule="evenodd" clip-rule="evenodd" d="M31.9887 3.65805C31.2476 3.11219 30.2042 3.2705 29.6584 4.01167C29.4389 4.3096 29.3334 4.65637 29.3336 5.00004V7.50012H16.0002C8.90833 7.50012 3.50024 12.7041 3.50024 20.0001C3.50024 20.9206 4.24644 21.6668 5.16691 21.6668C6.08738 21.6668 6.83358 20.9206 6.83358 20.0001C6.83358 14.5796 10.7146 10.8335 16.0002 10.8335H29.3336V13.347C29.3361 13.6862 29.4419 14.0277 29.6584 14.3217C30.2042 15.0629 31.2477 15.221 31.9889 14.6752L31.9946 14.6709C32.1199 14.5763 32.4767 14.3068 32.6767 14.1507C33.0814 13.8349 33.6264 13.3978 34.1764 12.9203C34.7181 12.45 35.3026 11.9078 35.7649 11.3846C35.9944 11.1249 36.2291 10.8305 36.4154 10.5215C36.5741 10.2582 36.8337 9.76814 36.8337 9.16672C36.8337 8.56532 36.5741 8.07525 36.4154 7.81197C36.2291 7.50294 35.9944 7.2086 35.7649 6.9489C35.3027 6.4257 34.7181 5.88344 34.1764 5.41314C33.6264 4.93565 33.0814 4.4985 32.6767 4.18277C32.4771 4.02687 32.1209 3.75785 31.9951 3.66277L31.9887 3.65805Z" fill="#61F0FE"/>
    <path fill-rule="evenodd" clip-rule="evenodd" d="M24.3336 32.4999C31.4256 32.4999 36.8336 27.2959 36.8336 19.9999C36.8336 19.0794 36.0874 18.3333 35.1669 18.3333C34.2464 18.3333 33.5002 19.0794 33.5002 19.9999C33.5002 25.4204 29.6192 29.1666 24.3336 29.1666H11.0003V26.6666C11.0006 26.3229 10.895 25.9761 10.6755 25.6783C10.1297 24.9371 9.08606 24.7789 8.34491 25.3248L8.33913 25.3291C8.21366 25.4239 7.85711 25.6933 7.65711 25.8493C7.25254 26.1651 6.70748 26.6023 6.15754 27.0798C5.61588 27.5499 5.03128 28.0923 4.56898 28.6154C4.33951 28.8751 4.10488 29.1694 3.91859 29.4786C3.75988 29.7418 3.50024 30.2319 3.50024 30.8333C3.50024 31.4346 3.75986 31.9248 3.91858 32.1881C4.10488 32.4971 4.33951 32.7914 4.56898 33.0511C5.03128 33.5743 5.61589 34.1166 6.15756 34.5869C6.70751 35.0643 7.25258 35.5014 7.65716 35.8173C7.85708 35.9733 8.21368 36.2426 8.33929 36.3374L8.34523 36.3419C9.08639 36.8878 10.1297 36.7294 10.6756 35.9883C10.8965 35.6883 11.0021 35.3388 11.0003 34.9928V32.4999H24.3336Z" fill="#61F0FE"/>
</svg>